<svg width="50" height="40" viewBox="0 0 50 40" fill="none" xmlns="http://www.w3.org/2000/svg">
<path d="M7.5 30H32.5L23.875 18.75L18.125 26.25L14.25 21.25L7.5 30ZM5 40C3.625 40 2.44833 39.5108 1.47 38.5325C0.491667 37.5542 0.00166667 36.3767 0 35V5C0 3.625 0.49 2.44833 1.47 1.47C2.45 0.491666 3.62667 0.00166667 5 0H35C36.375 0 37.5525 0.49 38.5325 1.47C39.5125 2.45 40.0017 3.62667 40 5V16.25L50 6.25V33.75L40 23.75V35C40 36.375 39.5108 37.5525 38.5325 38.5325C37.5542 39.5125 36.3767 40.0017 35 40H5Z" fill="#D99B69"/>
</svg>
