<svg width="52" height="54" viewBox="0 0 52 54" fill="none" xmlns="http://www.w3.org/2000/svg">
<path d="M35.2978 45.2632C37.4514 45.2632 39.2864 44.5119 40.8028 43.0095C42.3173 41.5088 43.0746 39.6622 43.0746 37.4695C43.0746 35.3139 42.3173 33.4765 40.8028 31.9573C39.2864 30.4364 37.4514 29.6759 35.2978 29.6759C33.111 29.6759 31.2677 30.4364 29.7679 31.9573C28.2682 33.4746 27.5183 35.312 27.5183 37.4695C27.5183 39.6622 28.2682 41.5088 29.7679 43.0095C31.2677 44.5119 33.111 45.2632 35.2978 45.2632ZM49.4273 53.5897L41.681 45.846C40.7816 46.5529 39.7934 47.095 38.7166 47.4725C37.6398 47.85 36.5002 48.0387 35.2978 48.0387C32.3685 48.0387 29.8778 47.0108 27.8258 44.9551C25.7738 42.8994 24.7487 40.4042 24.7506 37.4695C24.7524 34.5349 25.7775 32.0397 27.8258 29.9839C29.8741 27.9282 32.3648 26.9013 35.2978 26.9031C38.2309 26.905 40.7215 27.9319 42.7698 29.9839C44.8182 32.036 45.8432 34.5312 45.8451 37.4695C45.8451 38.6833 45.6456 39.8389 45.2467 40.9361C44.8477 42.0334 44.2945 43.0326 43.5871 43.9337L51.3334 51.6247L49.4273 53.5897ZM5.14386 49.9594C3.86758 49.9594 2.80279 49.5319 1.94948 48.6771C1.09617 47.8222 0.668595 46.7555 0.666748 45.4769V4.48246C0.666748 3.20572 1.09433 2.13993 1.94948 1.28507C2.80464 0.430206 3.86943 0.00185035 5.14386 0H26.9864L39.4536 12.4898V20.8719C38.7702 20.6924 38.0831 20.549 37.3923 20.4417C36.6997 20.3362 36.0015 20.2835 35.2978 20.2835C30.0801 20.2835 25.9105 22.0617 22.7891 25.618C19.6677 29.1744 18.1079 33.1767 18.1097 37.625C18.1097 39.8509 18.5512 42.0297 19.434 44.1613C20.3169 46.2929 21.7206 48.2256 23.6452 49.9594H5.14386ZM25.6011 13.8776H36.6831L25.6011 2.77552V13.8776Z" fill="#9F9F9F"/>
</svg>
